<svg xmlns="http://www.w3.org/2000/svg" xmlns:xlink="http://www.w3.org/1999/xlink" width="78px" height="104px" viewBox="0 0 78 104" version="1.1"><title>logo-svg</title><desc>Created with Sketch.</desc><g id="Cheer" stroke="none" stroke-width="1" fill="none" fill-rule="evenodd"><g id="logo-svg" transform="translate(-25.000000, -12.000000)"><rect id="Rectangle" x="0" y="0" width="128" height="128"/><path d="M56.5062483,46.7193254 L56.5062485,46.7193254 C54.3683296,46.7189228 52.3065232,45.9269256 50.7196902,44.4965421 L32.631487,28.0097255 L32.631487,28.0097255 C31.3501194,26.8543267 29.3860534,26.9061858 28.1676512,28.1275922 L25.950599,30.3469088 L25.9505988,30.3469091 C24.7637098,31.5358133 24.677697,33.4310724 25.7520281,34.7222757 L46.6985705,59.710009 L48.3151349,69.010859 L48.3151355,69.0108627 C48.7236257,71.4633343 48.8669571,73.952531 48.7426603,76.435596 L46.6662355,112.590763 L46.6662355,112.590763 C46.5747862,114.38001 47.9534734,115.904507 49.7456289,115.995788 C49.7991498,115.998515 49.8527302,116 49.9063207,116 L54.2065252,116 L54.2065252,116 C56.0126589,115.997804 57.5660234,114.722837 57.9175268,112.9541 L63.9836039,83.604 L70.050332,112.951933 L70.050332,112.951933 C70.4023281,114.722479 71.9576631,115.998483 73.7656739,116 L78.0702188,116 L78.0702188,116 C79.8663718,115.997426 81.3203618,114.541623 81.3177793,112.748375 C81.3177021,112.694723 81.3162931,112.641081 81.3135534,112.587499 L79.2349584,76.4041659 L79.2349568,76.4041333 C79.1105966,73.91927 79.2540752,71.4282533 79.6629221,68.9739833 L81.2803502,59.666655 L102.247509,34.6600717 L102.24751,34.6600715 C103.322459,33.3679625 103.236448,31.4714965 102.048938,30.2816715 L99.8294986,28.0604048 L99.8294986,28.0604049 C98.6095079,26.8382315 96.6437014,26.7864764 95.3608884,27.9427549 L77.2551068,44.4419215 L77.2551066,44.4419217 C75.6666525,45.8734254 73.6029819,46.6660917 71.4631229,46.666655 L56.5062483,46.7193254 Z M63.9621063,42.33339 L63.9621069,42.33339 C72.3519654,42.3541629 79.1702039,35.5807088 79.1911072,27.2044188 C79.2119138,18.8281288 72.4274876,12.0209172 64.0376291,12.0000477 C55.6477706,11.9792747 48.8295321,18.7527288 48.8086175,27.1290188 C48.8086175,27.1415698 48.8086175,27.154121 48.8086175,27.166672 L48.8086175,27.1668918 C48.7981978,35.5326734 55.5825313,42.3229201 63.9618644,42.33339 C63.9620167,42.33339 63.962169,42.33339 63.9623213,42.33339 L63.9621063,42.33339 Z" id="Shape-Copy" fill="#000000"/></g></g></svg>